<?xml version="1.0" encoding="UTF-8"?> <svg xmlns="http://www.w3.org/2000/svg" width="246" height="126" viewBox="0 0 246 126" fill="none"><path d="M0.5 98.4083V47.7255L34.3819 0H82.1667V52.4165L49.3146 98.4083H0.5Z" fill="#0E4A7E"></path><path d="M61.0895 28.1321V38.0617H47.6084V79.0125H35.2145V38.0617H21.7333V28.1321H61.0895Z" fill="white"></path><path d="M82.1667 98.4083V47.7255L116.049 0H163.833V52.4165L130.981 98.4083H82.1667Z" fill="#0E4A7E"></path><path d="M139.585 28.1321V38.0617H118.856V48.7886H134.367V58.4284H118.856V79.0125H106.462V28.1321H139.585Z" fill="white"></path><path d="M163.833 98.4083V47.7255L197.715 0H245.5V52.4165L212.648 98.4083H163.833Z" fill="#0E4A7E"></path><path d="M210.936 28.1321V79.0125H198.542V28.1321H210.936Z" fill="white"></path><path d="M244.127 122.696C243.73 122.696 243.395 122.559 243.12 122.284C242.846 122.01 242.708 121.674 242.708 121.278C242.708 120.881 242.846 120.545 243.12 120.271C243.395 119.996 243.73 119.859 244.127 119.859C244.508 119.859 244.829 119.996 245.088 120.271C245.363 120.545 245.5 120.881 245.5 121.278C245.5 121.674 245.363 122.01 245.088 122.284C244.829 122.559 244.508 122.696 244.127 122.696Z" fill="#0E4A7E"></path><path d="M228.787 116.267C228.787 114.97 229.046 113.841 229.565 112.88C230.083 111.904 230.8 111.149 231.716 110.615C232.646 110.081 233.706 109.814 234.896 109.814C236.437 109.814 237.703 110.188 238.694 110.935C239.701 111.683 240.365 112.72 240.685 114.047H238.443C238.229 113.284 237.81 112.682 237.184 112.239C236.574 111.797 235.811 111.576 234.896 111.576C233.706 111.576 232.745 111.988 232.013 112.811C231.281 113.62 230.915 114.772 230.915 116.267C230.915 117.777 231.281 118.944 232.013 119.767C232.745 120.591 233.706 121.003 234.896 121.003C235.811 121.003 236.574 120.789 237.184 120.362C237.794 119.935 238.214 119.325 238.443 118.532H240.685C240.35 119.813 239.678 120.843 238.672 121.621C237.665 122.384 236.406 122.765 234.896 122.765C233.706 122.765 232.646 122.498 231.716 121.964C230.8 121.43 230.083 120.675 229.565 119.699C229.046 118.722 228.787 117.578 228.787 116.267Z" fill="#0E4A7E"></path><path d="M221.038 109.791C222.563 109.791 223.799 110.256 224.745 111.187C225.69 112.102 226.163 113.429 226.163 115.168V122.559H224.104V115.466C224.104 114.215 223.791 113.261 223.166 112.605C222.54 111.934 221.686 111.599 220.603 111.599C219.505 111.599 218.628 111.942 217.972 112.628C217.331 113.315 217.011 114.314 217.011 115.626V122.559H214.928V110.02H217.011V111.804C217.422 111.164 217.979 110.668 218.681 110.317C219.398 109.966 220.184 109.791 221.038 109.791Z" fill="#0E4A7E"></path><path d="M211.379 106.61V122.559H209.297V106.61H211.379Z" fill="#0E4A7E"></path><path d="M200.812 119.676L198.249 125.831H196.853L198.523 119.676H200.812Z" fill="#0E4A7E"></path><path d="M191.145 122.765C190.184 122.765 189.322 122.605 188.559 122.284C187.797 121.949 187.194 121.491 186.752 120.912C186.309 120.317 186.065 119.638 186.019 118.875H188.17C188.231 119.5 188.521 120.012 189.04 120.408C189.574 120.805 190.268 121.003 191.122 121.003C191.915 121.003 192.541 120.828 192.998 120.477C193.456 120.126 193.685 119.684 193.685 119.15C193.685 118.6 193.441 118.196 192.953 117.937C192.465 117.662 191.709 117.395 190.687 117.136C189.757 116.892 188.994 116.648 188.399 116.404C187.819 116.144 187.316 115.771 186.889 115.283C186.477 114.779 186.271 114.123 186.271 113.315C186.271 112.674 186.462 112.087 186.843 111.553C187.225 111.019 187.766 110.599 188.468 110.294C189.17 109.974 189.97 109.814 190.87 109.814C192.259 109.814 193.38 110.165 194.234 110.866C195.088 111.568 195.546 112.529 195.607 113.75H193.525C193.479 113.094 193.212 112.567 192.724 112.171C192.251 111.774 191.61 111.576 190.802 111.576C190.054 111.576 189.459 111.736 189.017 112.056C188.575 112.377 188.353 112.796 188.353 113.315C188.353 113.727 188.483 114.07 188.742 114.344C189.017 114.604 189.353 114.817 189.749 114.985C190.161 115.138 190.725 115.313 191.442 115.511C192.342 115.755 193.075 116 193.639 116.244C194.204 116.472 194.684 116.823 195.081 117.296C195.493 117.769 195.706 118.387 195.721 119.15C195.721 119.836 195.531 120.454 195.149 121.003C194.768 121.552 194.226 121.987 193.525 122.307C192.838 122.612 192.045 122.765 191.145 122.765Z" fill="#0E4A7E"></path><path d="M180.252 112.056C180.618 111.339 181.137 110.782 181.808 110.386C182.495 109.989 183.326 109.791 184.302 109.791V111.942H183.753C181.419 111.942 180.252 113.208 180.252 115.74V122.559H178.17V110.02H180.252V112.056Z" fill="#0E4A7E"></path><path d="M169.002 122.765C167.828 122.765 166.76 122.498 165.799 121.964C164.853 121.43 164.106 120.675 163.557 119.699C163.023 118.707 162.756 117.563 162.756 116.267C162.756 114.985 163.03 113.856 163.579 112.88C164.144 111.888 164.907 111.133 165.868 110.615C166.829 110.081 167.904 109.814 169.094 109.814C170.284 109.814 171.359 110.081 172.32 110.615C173.281 111.133 174.036 111.881 174.586 112.857C175.15 113.833 175.432 114.97 175.432 116.267C175.432 117.563 175.142 118.707 174.563 119.699C173.998 120.675 173.228 121.43 172.252 121.964C171.275 122.498 170.192 122.765 169.002 122.765ZM169.002 120.934C169.75 120.934 170.452 120.759 171.108 120.408C171.763 120.057 172.29 119.531 172.686 118.829C173.098 118.128 173.304 117.273 173.304 116.267C173.304 115.26 173.106 114.405 172.709 113.704C172.313 113.002 171.794 112.483 171.153 112.148C170.513 111.797 169.818 111.622 169.071 111.622C168.308 111.622 167.607 111.797 166.966 112.148C166.34 112.483 165.837 113.002 165.456 113.704C165.074 114.405 164.884 115.26 164.884 116.267C164.884 117.289 165.067 118.15 165.433 118.852C165.814 119.554 166.318 120.08 166.943 120.431C167.568 120.767 168.255 120.934 169.002 120.934Z" fill="#0E4A7E"></path><path d="M157.739 111.736V119.127C157.739 119.737 157.868 120.172 158.128 120.431C158.387 120.675 158.837 120.797 159.478 120.797H161.011V122.559H159.134C157.975 122.559 157.106 122.292 156.526 121.758C155.946 121.224 155.656 120.347 155.656 119.127V111.736H154.032V110.02H155.656V106.862H157.739V110.02H161.011V111.736H157.739Z" fill="#0E4A7E"></path><path d="M138.958 116.244C138.958 114.962 139.217 113.841 139.736 112.88C140.254 111.904 140.964 111.149 141.864 110.615C142.779 110.081 143.793 109.814 144.907 109.814C146.005 109.814 146.959 110.05 147.767 110.523C148.576 110.996 149.178 111.591 149.575 112.308V110.02H151.68V122.559H149.575V120.225C149.163 120.957 148.545 121.567 147.721 122.056C146.913 122.529 145.967 122.765 144.884 122.765C143.77 122.765 142.764 122.49 141.864 121.941C140.964 121.392 140.254 120.622 139.736 119.63C139.217 118.639 138.958 117.51 138.958 116.244ZM149.575 116.267C149.575 115.321 149.384 114.497 149.003 113.795C148.621 113.094 148.103 112.56 147.447 112.194C146.806 111.812 146.097 111.622 145.319 111.622C144.541 111.622 143.831 111.805 143.191 112.171C142.55 112.537 142.039 113.071 141.658 113.772C141.276 114.474 141.086 115.298 141.086 116.244C141.086 117.205 141.276 118.044 141.658 118.761C142.039 119.462 142.55 120.004 143.191 120.385C143.831 120.751 144.541 120.934 145.319 120.934C146.097 120.934 146.806 120.751 147.447 120.385C148.103 120.004 148.621 119.462 149.003 118.761C149.384 118.044 149.575 117.212 149.575 116.267Z" fill="#0E4A7E"></path><path d="M133.941 111.736V119.127C133.941 119.737 134.07 120.172 134.33 120.431C134.589 120.675 135.039 120.797 135.68 120.797H137.213V122.559H135.336C134.177 122.559 133.308 122.292 132.728 121.758C132.148 121.224 131.858 120.347 131.858 119.127V111.736H130.234V110.02H131.858V106.862H133.941V110.02H137.213V111.736H133.941Z" fill="#0E4A7E"></path><path d="M126.845 107.983C126.449 107.983 126.113 107.846 125.838 107.571C125.564 107.297 125.426 106.961 125.426 106.565C125.426 106.168 125.564 105.832 125.838 105.558C126.113 105.283 126.449 105.146 126.845 105.146C127.227 105.146 127.547 105.283 127.806 105.558C128.081 105.832 128.218 106.168 128.218 106.565C128.218 106.961 128.081 107.297 127.806 107.571C127.547 107.846 127.227 107.983 126.845 107.983ZM127.852 110.02V122.559H125.77V110.02H127.852Z" fill="#0E4A7E"></path><path d="M122.221 105.626V122.559H120.139V105.626H122.221Z" fill="#0E4A7E"></path><path d="M115.583 107.983C115.186 107.983 114.851 107.846 114.576 107.571C114.302 107.297 114.164 106.961 114.164 106.565C114.164 106.168 114.302 105.832 114.576 105.558C114.851 105.283 115.186 105.146 115.583 105.146C115.964 105.146 116.285 105.283 116.544 105.558C116.819 105.832 116.956 106.168 116.956 106.565C116.956 106.961 116.819 107.297 116.544 107.571C116.285 107.846 115.964 107.983 115.583 107.983ZM116.59 110.02V122.559H114.508V110.02H116.59Z" fill="#0E4A7E"></path><path d="M99.8307 116.267C99.8307 114.97 100.09 113.841 100.609 112.88C101.127 111.904 101.844 111.149 102.76 110.615C103.69 110.081 104.75 109.814 105.94 109.814C107.481 109.814 108.747 110.188 109.738 110.935C110.745 111.683 111.409 112.72 111.729 114.047H109.487C109.273 113.284 108.854 112.682 108.228 112.239C107.618 111.797 106.855 111.576 105.94 111.576C104.75 111.576 103.789 111.988 103.057 112.811C102.325 113.62 101.959 114.772 101.959 116.267C101.959 117.777 102.325 118.944 103.057 119.767C103.789 120.591 104.75 121.003 105.94 121.003C106.855 121.003 107.618 120.789 108.228 120.362C108.838 119.935 109.258 119.325 109.487 118.532H111.729C111.394 119.813 110.722 120.843 109.716 121.621C108.709 122.384 107.45 122.765 105.94 122.765C104.75 122.765 103.69 122.498 102.76 121.964C101.844 121.43 101.127 120.675 100.609 119.699C100.09 118.722 99.8307 117.578 99.8307 116.267Z" fill="#0E4A7E"></path><path d="M84.3676 116.244C84.3676 114.962 84.6269 113.841 85.1455 112.88C85.6642 111.904 86.3735 111.149 87.2735 110.615C88.1888 110.081 89.2032 109.814 90.3168 109.814C91.4152 109.814 92.3686 110.05 93.1771 110.523C93.9855 110.996 94.5881 111.591 94.9847 112.308V110.02H97.0898V122.559H94.9847V120.225C94.5728 120.957 93.955 121.567 93.1313 122.056C92.3228 122.529 91.377 122.765 90.294 122.765C89.1804 122.765 88.1736 122.49 87.2735 121.941C86.3735 121.392 85.6642 120.622 85.1455 119.63C84.6269 118.639 84.3676 117.51 84.3676 116.244ZM94.9847 116.267C94.9847 115.321 94.794 114.497 94.4127 113.795C94.0313 113.094 93.5127 112.56 92.8567 112.194C92.216 111.812 91.5067 111.622 90.7287 111.622C89.9507 111.622 89.2414 111.805 88.6007 112.171C87.96 112.537 87.449 113.071 87.0676 113.772C86.6863 114.474 86.4956 115.298 86.4956 116.244C86.4956 117.205 86.6863 118.044 87.0676 118.761C87.449 119.462 87.96 120.004 88.6007 120.385C89.2414 120.751 89.9507 120.934 90.7287 120.934C91.5067 120.934 92.216 120.751 92.8567 120.385C93.5127 120.004 94.0313 119.462 94.4127 118.761C94.794 118.044 94.9847 117.212 94.9847 116.267Z" fill="#0E4A7E"></path><path d="M82.6307 106.61V108.304H75.6975V113.681H81.3264V115.374H75.6975V122.559H73.6153V106.61H82.6307Z" fill="#0E4A7E"></path><path d="M64.7664 115.809C64.7664 116.205 64.7436 116.625 64.6978 117.067H54.6756C54.7518 118.303 55.1713 119.272 55.9341 119.973C56.712 120.66 57.6502 121.003 58.7485 121.003C59.6485 121.003 60.396 120.797 60.9909 120.385C61.6011 119.958 62.0282 119.394 62.2723 118.692H64.5147C64.1791 119.897 63.5079 120.881 62.5011 121.644C61.4943 122.391 60.2435 122.765 58.7485 122.765C57.5587 122.765 56.4908 122.498 55.5451 121.964C54.6145 121.43 53.8823 120.675 53.3484 119.699C52.8145 118.707 52.5475 117.563 52.5475 116.267C52.5475 114.97 52.8069 113.833 53.3255 112.857C53.8442 111.881 54.5688 111.133 55.4993 110.615C56.4451 110.081 57.5282 109.814 58.7485 109.814C59.9384 109.814 60.9909 110.073 61.9062 110.592C62.8215 111.11 63.5232 111.827 64.0113 112.743C64.5147 113.643 64.7664 114.665 64.7664 115.809ZM62.6155 115.374C62.6155 114.581 62.4401 113.902 62.0893 113.338C61.7384 112.758 61.2579 112.323 60.6477 112.033C60.0528 111.728 59.3892 111.576 58.657 111.576C57.6044 111.576 56.7044 111.911 55.9569 112.583C55.2247 113.254 54.8052 114.184 54.6984 115.374H62.6155Z" fill="#0E4A7E"></path><path d="M37.0844 116.244C37.0844 114.962 37.3438 113.841 37.8624 112.88C38.3811 111.904 39.0904 111.149 39.9904 110.615C40.9057 110.081 41.9278 109.814 43.0566 109.814C44.0329 109.814 44.9405 110.043 45.7795 110.5C46.6185 110.943 47.2592 111.53 47.7016 112.262V105.626H49.8067V122.559H47.7016V120.202C47.2897 120.95 46.6795 121.567 45.8711 122.056C45.0626 122.528 44.1168 122.765 43.0337 122.765C41.9201 122.765 40.9057 122.49 39.9904 121.941C39.0904 121.392 38.3811 120.622 37.8624 119.63C37.3438 118.639 37.0844 117.51 37.0844 116.244ZM47.7016 116.267C47.7016 115.321 47.5109 114.497 47.1296 113.795C46.7482 113.094 46.2295 112.56 45.5736 112.194C44.9329 111.812 44.2236 111.621 43.4456 111.621C42.6676 111.621 41.9583 111.805 41.3176 112.171C40.6769 112.537 40.1659 113.071 39.7845 113.772C39.4031 114.474 39.2124 115.298 39.2124 116.244C39.2124 117.205 39.4031 118.044 39.7845 118.761C40.1659 119.462 40.6769 120.004 41.3176 120.385C41.9583 120.751 42.6676 120.934 43.4456 120.934C44.2236 120.934 44.9329 120.751 45.5736 120.385C46.2295 120.004 46.7482 119.462 47.1296 118.761C47.5109 118.044 47.7016 117.212 47.7016 116.267Z" fill="#0E4A7E"></path><path d="M21.6213 116.244C21.6213 114.962 21.8807 113.841 22.3993 112.88C22.918 111.904 23.6273 111.149 24.5273 110.615C25.4426 110.081 26.457 109.814 27.5706 109.814C28.6689 109.814 29.6224 110.05 30.4308 110.523C31.2393 110.996 31.8419 111.591 32.2385 112.308V110.02H34.3436V122.559H32.2385V120.225C31.8266 120.957 31.2088 121.567 30.3851 122.056C29.5766 122.529 28.6308 122.765 27.5477 122.765C26.4342 122.765 25.4274 122.49 24.5273 121.941C23.6273 121.392 22.918 120.622 22.3993 119.63C21.8807 118.639 21.6213 117.51 21.6213 116.244ZM32.2385 116.267C32.2385 115.321 32.0478 114.497 31.6665 113.795C31.2851 113.094 30.7664 112.56 30.1105 112.194C29.4698 111.812 28.7605 111.622 27.9825 111.622C27.2045 111.622 26.4952 111.805 25.8545 112.171C25.2138 112.537 24.7028 113.071 24.3214 113.772C23.94 114.474 23.7494 115.298 23.7494 116.244C23.7494 117.205 23.94 118.044 24.3214 118.761C24.7028 119.462 25.2138 120.004 25.8545 120.385C26.4952 120.751 27.2045 120.934 27.9825 120.934C28.7605 120.934 29.4698 120.751 30.1105 120.385C30.7664 120.004 31.2851 119.462 31.6665 118.761C32.0478 118.044 32.2385 117.212 32.2385 116.267Z" fill="#0E4A7E"></path><path d="M15.9456 112.056C16.3117 111.339 16.8303 110.782 17.5015 110.386C18.188 109.989 19.0194 109.791 19.9957 109.791V111.942H19.4465C17.1126 111.942 15.9456 113.208 15.9456 115.74V122.559H13.8633V110.02H15.9456V112.056Z" fill="#0E4A7E"></path><path d="M11.3002 106.61V108.304H6.95267V122.559H4.87043V108.304H0.5V106.61H11.3002Z" fill="#0E4A7E"></path></svg> 